<?xml version="1.0" encoding="utf-8"?>
<!-- Generator: Adobe Illustrator 15.0.0, SVG Export Plug-In . SVG Version: 6.00 Build 0)  -->
<!DOCTYPE svg PUBLIC "-//W3C//DTD SVG 1.1//EN" "http://www.w3.org/Graphics/SVG/1.1/DTD/svg11.dtd">
<svg version="1.1" id="Layer_1" xmlns="http://www.w3.org/2000/svg" xmlns:xlink="http://www.w3.org/1999/xlink" x="0px" y="0px"
	 width="24.5px" height="25.829px" viewBox="0 0 24.5 25.829" enable-background="new 0 0 24.5 25.829" xml:space="preserve">
<g>
	<path fill="none" d="M13.566,10.784c0.016,0,0.029,0.004,0.044,0.004c0.111-0.396,0.271-0.778,0.421-1.16
		c0.053-0.133,0.105-0.27,0.103-0.413c-0.008-0.542-0.799-1.034-1.22-1.235c-0.638-0.304-1.351-0.449-2.057-0.412
		c-0.644,0.034-1.311,0.235-1.747,0.71c-0.678,0.74-0.364,1.669,0.206,2.352c0.438,0.507,0.984,0.902,1.506,1.324
		C11.519,11.235,12.489,10.784,13.566,10.784z"/>
	<path fill="none" d="M5.51,13.038c-1.822-2.262-2.439-4.609-1.834-6.975C3.718,5.901,3.77,5.735,3.828,5.567
		c-1.833,2.047-2.856,4.684-2.856,7.501c0,2.815,1.044,5.513,2.939,7.593c1.57,1.722,3.611,2.902,5.851,3.407
		c-0.664-0.795-1.28-1.992-1.498-3.783C7.89,17.209,7.015,14.907,5.51,13.038z"/>
	<path fill="none" d="M17.472,3.067c0.46,0.695,0.734,1.457,0.777,2.239c0.015,0.268-0.189,0.497-0.458,0.512
		c-0.27,0.014-0.498-0.191-0.512-0.458c-0.083-1.493-1.256-2.928-3.063-3.746C12.351,0.77,9.523,0.521,7.185,2.359
		C6.073,3.233,4.97,4.928,4.618,6.304c-0.525,2.053,0.03,4.114,1.649,6.124c1.624,2.017,2.566,4.476,2.963,7.74
		c0.313,2.581,1.526,3.701,2.306,4.163l0.074,0.007l-0.003,0.035c0.114,0.064,0.217,0.114,0.304,0.152
		c1.364,0.588,3.418,0.419,4.495-0.882c0.007-0.01,0.014-0.02,0.021-0.027l-0.021-0.049l0.091-0.041
		c0.388-0.508,0.618-1.082,0.631-1.593c0.007-0.269,0.235-0.483,0.499-0.474c0.269,0.007,0.48,0.23,0.473,0.498
		c-0.007,0.271-0.057,0.551-0.141,0.83c3.417-2.01,5.57-5.698,5.57-9.72C23.528,8.807,21.156,4.985,17.472,3.067z M16.403,17.155
		c-0.41,1.169-1.343,2.087-2.827,2.195c-0.328,0.022-0.578-0.008-0.754-0.038c-0.091-0.016-0.148-0.03-0.188-0.041
		s-0.061-0.017-0.061-0.017l0.054-0.395c0,0,0.021,0,0.063,0.001c0.041,0,0.104,0.003,0.173-0.002
		c0.142-0.005,0.363-0.025,0.625-0.088c0.341-0.089,0.652-0.243,0.934-0.438c-0.276,0.063-0.561,0.104-0.855,0.104
		c-2.11,0-3.827-1.716-3.827-3.826c0-0.778,0.236-1.501,0.637-2.106c-0.719-0.682-1.52-1.292-1.943-2.22
		C8.012,9.39,8.181,8.378,8.933,7.711c0.588-0.521,1.393-0.77,2.178-0.776c1.006-0.009,2.121,0.219,2.94,0.822
		c0.224,0.164,0.407,0.34,0.554,0.51c0.092-0.304,0.146-0.595,0.141-0.869c-0.018-1.081-0.989-1.983-1.927-2.367
		c-0.89-0.363-1.892-0.382-2.838-0.208c1.784-1.32,4.538-0.749,5.526,1.283c0.833,1.711-0.149,3.226-0.758,4.811
		c-0.008,0.021-0.013,0.045-0.021,0.067c1.54,0.496,2.664,1.925,2.664,3.627C17.393,15.591,17.012,16.477,16.403,17.155z"/>
	<path d="M16.086,1.43l-0.462-0.152v0.001c-0.313-0.203-0.648-0.389-1.007-0.55c-2.126-0.962-5.352-1.24-8.033,0.866
		c-0.48,0.377-0.952,0.877-1.376,1.438L4.856,3.3C1.77,5.639,0,9.2,0,13.068c0,3.059,1.134,5.989,3.193,8.248
		c2.045,2.245,4.829,3.644,7.838,3.941l0.208,0.021c0.105,0.056,0.203,0.103,0.287,0.139c0.645,0.279,1.34,0.412,2.026,0.412
		c1.372,0,2.707-0.536,3.549-1.508l0.146-0.065c4.407-1.971,7.254-6.361,7.254-11.188C24.5,7.765,21.118,3.089,16.086,1.43z
		 M3.911,20.661c-1.895-2.08-2.939-4.777-2.939-7.593c0-2.817,1.023-5.454,2.856-7.501C3.77,5.735,3.718,5.901,3.676,6.063
		c-0.605,2.366,0.012,4.713,1.834,6.975c1.505,1.869,2.38,4.172,2.754,7.247c0.218,1.791,0.834,2.988,1.498,3.783
		C7.522,23.563,5.481,22.382,3.911,20.661z M17.958,22.788c0.084-0.279,0.134-0.559,0.141-0.83c0.008-0.268-0.204-0.491-0.473-0.498
		c-0.264-0.01-0.492,0.205-0.499,0.474c-0.013,0.511-0.243,1.085-0.631,1.593l-0.091,0.041l0.021,0.049
		c-0.007,0.008-0.014,0.018-0.021,0.027c-1.077,1.301-3.131,1.47-4.495,0.882c-0.087-0.038-0.19-0.088-0.304-0.152l0.003-0.035
		l-0.074-0.007c-0.78-0.462-1.993-1.582-2.306-4.163c-0.397-3.264-1.339-5.723-2.963-7.74c-1.619-2.01-2.174-4.071-1.649-6.124
		C4.97,4.928,6.073,3.233,7.185,2.359c2.338-1.837,5.166-1.589,7.031-0.745c1.808,0.818,2.98,2.253,3.063,3.746
		c0.014,0.267,0.242,0.472,0.512,0.458c0.269-0.015,0.473-0.244,0.458-0.512c-0.043-0.782-0.317-1.544-0.777-2.239
		c3.685,1.918,6.057,5.74,6.057,10.001C23.528,17.089,21.375,20.778,17.958,22.788z"/>
	<path fill="#FFFFFF" d="M13.566,11.437c-1.75,0-3.173,1.424-3.173,3.174s1.423,3.174,3.173,3.174s3.174-1.424,3.174-3.174
		S15.316,11.437,13.566,11.437z M13.566,16.896c-1.263,0-2.286-1.022-2.286-2.285c0-1.263,1.023-2.287,2.286-2.287
		s2.286,1.023,2.286,2.287C15.853,15.874,14.829,16.896,13.566,16.896z"/>
	<path d="M14.729,10.983c0.008-0.022,0.013-0.045,0.021-0.067c0.608-1.585,1.591-3.1,0.758-4.811
		c-0.988-2.032-3.742-2.603-5.526-1.283c0.946-0.174,1.948-0.155,2.838,0.208c0.938,0.384,1.909,1.286,1.927,2.367
		c0.006,0.274-0.049,0.565-0.141,0.869c-0.146-0.17-0.33-0.346-0.554-0.51c-0.819-0.603-1.935-0.831-2.94-0.822
		c-0.785,0.006-1.59,0.255-2.178,0.776C8.181,8.378,8.012,9.39,8.434,10.285c0.423,0.927,1.224,1.538,1.943,2.22
		c-0.401,0.605-0.637,1.328-0.637,2.106c0,2.11,1.717,3.826,3.827,3.826c0.295,0,0.579-0.041,0.855-0.104
		c-0.281,0.195-0.593,0.35-0.934,0.438c-0.262,0.063-0.483,0.083-0.625,0.088c-0.068,0.005-0.132,0.002-0.173,0.002
		c-0.042-0.001-0.063-0.001-0.063-0.001l-0.054,0.395c0,0,0.021,0.006,0.061,0.017s0.098,0.025,0.188,0.041
		c0.176,0.03,0.426,0.061,0.754,0.038c1.484-0.108,2.417-1.026,2.827-2.195c0.608-0.678,0.989-1.563,0.989-2.544
		C17.393,12.908,16.269,11.479,14.729,10.983z M13.566,17.785c-1.75,0-3.173-1.424-3.173-3.174s1.423-3.174,3.173-3.174
		s3.174,1.424,3.174,3.174S15.316,17.785,13.566,17.785z M9.316,10.63C8.746,9.947,8.432,9.018,9.11,8.278
		c0.436-0.475,1.103-0.676,1.747-0.71c0.706-0.037,1.419,0.108,2.057,0.412c0.421,0.201,1.212,0.693,1.22,1.235
		c0.003,0.143-0.05,0.28-0.103,0.413c-0.15,0.382-0.31,0.765-0.421,1.16c-0.015,0-0.028-0.004-0.044-0.004
		c-1.077,0-2.048,0.451-2.744,1.17C10.3,11.532,9.754,11.137,9.316,10.63z"/>
	<path d="M13.566,12.324c-1.263,0-2.286,1.023-2.286,2.287c0,1.263,1.023,2.285,2.286,2.285s2.286-1.022,2.286-2.285
		C15.853,13.348,14.829,12.324,13.566,12.324z M14.729,15.732c0.049,0.071,0.029,0.171-0.043,0.221
		c-0.027,0.018-0.059,0.027-0.09,0.027c-0.051,0-0.101-0.025-0.132-0.07l-0.743-1.1c-0.032-0.049-0.035-0.111-0.009-0.163
		c0.028-0.053,0.082-0.086,0.142-0.086c0.587,0,0.632-0.383,0.632-0.501c0-0.116-0.045-0.5-0.632-0.5H13.28
		c-0.587,0-0.633,0.384-0.633,0.5c0,0.118,0.046,0.501,0.633,0.501c0.059,0,0.113,0.033,0.14,0.086
		c0.028,0.052,0.025,0.114-0.008,0.163l-0.743,1.1c-0.049,0.073-0.147,0.092-0.221,0.043c-0.073-0.05-0.092-0.149-0.043-0.221
		l0.594-0.881c-0.176-0.036-0.324-0.112-0.437-0.223c-0.15-0.145-0.233-0.347-0.233-0.568c0-0.22,0.083-0.421,0.233-0.567
		c0.169-0.164,0.417-0.251,0.718-0.251h0.573c0.3,0,0.548,0.087,0.718,0.251c0.149,0.146,0.232,0.348,0.232,0.567
		c0,0.222-0.083,0.424-0.232,0.568c-0.113,0.11-0.262,0.187-0.438,0.223L14.729,15.732z"/>
	<path fill="#FFFFFF" d="M14.804,14.06c0-0.22-0.083-0.421-0.232-0.567c-0.17-0.164-0.418-0.251-0.718-0.251H13.28
		c-0.301,0-0.549,0.087-0.718,0.251c-0.15,0.146-0.233,0.348-0.233,0.567c0,0.222,0.083,0.424,0.233,0.568
		c0.112,0.11,0.261,0.187,0.437,0.223l-0.594,0.881c-0.049,0.071-0.03,0.171,0.043,0.221c0.073,0.049,0.172,0.03,0.221-0.043
		l0.743-1.1c0.033-0.049,0.036-0.111,0.008-0.163c-0.026-0.053-0.081-0.086-0.14-0.086c-0.587,0-0.633-0.383-0.633-0.501
		c0-0.116,0.046-0.5,0.633-0.5h0.573c0.587,0,0.632,0.384,0.632,0.5c0,0.118-0.045,0.501-0.632,0.501
		c-0.06,0-0.113,0.033-0.142,0.086c-0.026,0.052-0.023,0.114,0.009,0.163l0.743,1.1c0.031,0.045,0.081,0.07,0.132,0.07
		c0.031,0,0.063-0.01,0.09-0.027c0.072-0.05,0.092-0.149,0.043-0.221l-0.595-0.881c0.176-0.036,0.324-0.112,0.438-0.223
		C14.721,14.484,14.804,14.282,14.804,14.06z"/>
</g>
</svg>
