<?xml version="1.0" encoding="utf-8"?>
<!-- Generator: Adobe Illustrator 15.0.0, SVG Export Plug-In . SVG Version: 6.00 Build 0)  -->
<!DOCTYPE svg PUBLIC "-//W3C//DTD SVG 1.1//EN" "http://www.w3.org/Graphics/SVG/1.1/DTD/svg11.dtd">
<svg version="1.1" id="Layer_1" xmlns="http://www.w3.org/2000/svg" xmlns:xlink="http://www.w3.org/1999/xlink" x="0px" y="0px"
	 width="24.749px" height="25.377px" viewBox="0 0 24.749 25.377" enable-background="new 0 0 24.749 25.377" xml:space="preserve">
<g>
	<path fill="#1D1D1B" d="M24.723,4.744L24.695,4.69l-0.08-0.133l-0.08-0.08L24.481,4.45l-0.133-0.054L12.268,0.04
		c-0.134-0.053-0.268-0.053-0.374,0L0.375,4.343l-0.161,0.08L0.106,4.53c0,0-0.08,0.16-0.08,0.187C0.026,4.744,0,4.797,0,4.851
		v0.027v15.1c0,0.241,0.133,0.429,0.347,0.509l11.868,4.863l0.133,0.027l0.161-0.027l11.893-4.863
		c0.214-0.08,0.348-0.294,0.348-0.509v-15.1L24.723,4.744z M17.212,3.007L7.59,7.149L6.334,6.642l9.621-4.09L17.212,3.007z
		 M7.216,8.245l-0.107,5.586l-1.47-0.588l0.027-5.639l0.213,0.08L7.216,8.245z M12.08,1.189l2.325,0.829L4.892,6.054l-2.78-1.15
		L12.08,1.189z M11.813,24.014l-10.691-4.41V5.706l3.394,1.39L4.49,13.59c0,0.214,0.133,0.428,0.347,0.508l2.593,1.097
		c0.08,0.026,0.133,0.054,0.213,0.054c0.107,0,0.214-0.027,0.294-0.081c0.161-0.107,0.241-0.267,0.268-0.454l0.133-6.014
		l3.475,1.444V24.014z M12.374,9.127l-0.159-0.053l-3.182-1.31l9.729-4.196l3.821,1.363l-9.648,3.982L12.374,9.127z M23.626,19.604
		l-10.69,4.41V10.116l10.69-4.41V19.604z"/>
	<path fill="#1D1D1B" d="M19.055,19.35c2.217-0.402,3.688-2.525,3.288-4.742c-0.402-2.218-2.525-3.69-4.742-3.288
		c-2.217,0.402-3.689,2.525-3.288,4.742C14.715,18.278,16.838,19.75,19.055,19.35z M17.69,11.817
		c1.939-0.351,3.803,0.941,4.154,2.88c0.351,1.939-0.941,3.803-2.88,4.154c-1.939,0.351-3.804-0.941-4.154-2.88
		C14.46,14.031,15.752,12.168,17.69,11.817z"/>
	<path fill="#1D1D1B" d="M17.51,15.872l-0.681,1.543c-0.056,0.128,0.002,0.276,0.13,0.333c0.127,0.057,0.277-0.001,0.333-0.129
		l0.851-1.93c0.038-0.085,0.024-0.185-0.033-0.258c-0.058-0.074-0.151-0.109-0.244-0.092c-0.916,0.166-1.096-0.421-1.13-0.604
		c-0.033-0.184-0.07-0.796,0.847-0.962l0.896-0.162c0.917-0.166,1.097,0.42,1.13,0.604c0.033,0.183,0.07,0.795-0.847,0.961
		c-0.093,0.017-0.167,0.083-0.195,0.172c-0.029,0.089-0.006,0.188,0.059,0.254l1.474,1.508c0.061,0.063,0.146,0.086,0.226,0.072
		c0.048-0.009,0.094-0.031,0.131-0.068c0.101-0.097,0.103-0.258,0.005-0.357l-1.178-1.206c0.264-0.108,0.475-0.269,0.62-0.472
		c0.194-0.271,0.266-0.609,0.204-0.954c-0.063-0.345-0.249-0.637-0.525-0.822c-0.311-0.209-0.724-0.274-1.192-0.189l-0.896,0.162
		c-0.47,0.085-0.833,0.291-1.051,0.596c-0.194,0.27-0.266,0.608-0.203,0.953s0.248,0.637,0.525,0.822
		C16.972,15.787,17.225,15.862,17.51,15.872z"/>
</g>
</svg>
