<?xml version="1.0" encoding="utf-8"?>
<!-- Generator: Adobe Illustrator 21.0.0, SVG Export Plug-In . SVG Version: 6.00 Build 0)  -->
<svg version="1.1" id="Calque_1" xmlns="http://www.w3.org/2000/svg" xmlns:xlink="http://www.w3.org/1999/xlink" x="0px" y="0px"
	 viewBox="0 0 100 125" style="enable-background:new 0 0 100 125;" xml:space="preserve">
<g>
	<path d="M64.4,19H35.6c-3.9,0-7.1,3.2-7.1,7.1v19.1v8.4v48.3c0,3.9,3.2,7.1,7.1,7.1h28.8c3.9,0,7.1-3.2,7.1-7.1c0,0,0-12.7,0-21.2
		v-8.4c0-22,0-46.2,0-46.2C71.5,22.2,68.3,19,64.4,19z M44.4,23h11.1c0.5,0,0.8,0.5,0.8,1s-0.4,1-0.8,1H44.4c-0.5,0-0.8-0.5-0.8-1
		C43.5,23.5,43.9,23,44.4,23z M49.9,106.5c-1.8,0-3.3-1.5-3.3-3.3c0-1.8,1.5-3.3,3.3-3.3c1.8,0,3.3,1.5,3.3,3.3
		C53.2,105,51.7,106.5,49.9,106.5z M69.5,71v8.5V98h-39V54.9v-8.5V28h39V71z"/>
	<path d="M47.4,66.4V62c0-1,1.1-1.6,1.9-1.1l3.7,2.2c0.8,0.5,0.8,1.7,0,2.2l-3.7,2.2C48.4,68,47.4,67.4,47.4,66.4z"/>
	<g>
		<path d="M50,72.2c-4.5,0-8.2-3.7-8.2-8.2c0-0.3,0.2-0.5,0.5-0.5s0.5,0.2,0.5,0.5c0,4,3.2,7.2,7.2,7.2c4,0,7.2-3.2,7.2-7.2
			c0-4-3.2-7.2-7.2-7.2c-1.4,0-2.8,0.4-4,1.2c-0.2,0.2-0.5,0.1-0.7-0.1c-0.2-0.2-0.1-0.5,0.1-0.7c1.4-0.9,3-1.4,4.6-1.4
			c4.5,0,8.2,3.7,8.2,8.2S54.5,72.2,50,72.2z"/>
	</g>
</g>
</svg>
